PathFileType	4	(X/Y/Z)	67_2_80_p0_0-857_filt_butterworth.trc
DataRate	CameraRate	NumFrames	NumMarkers	Units	OrigDataRate	OrigDataStartFrame	OrigNumFrames
60.0	60.0	6	27	m	60.0	535	857
Frame#	Time	RHip			RKnee			RAnkle			RBigToe			RSmallToe			RHeel			LHip			LKnee			LAnkle			LBigToe			LSmallToe			LHeel			Neck			Head			Nose			RShoulder			RElbow			RWrist			RThumb			RIndex			RPinky			LShoulder			LElbow			LWrist			LThumb			LIndex			LPinky			
		X1	Y1	Z1	X2	Y2	Z2	X3	Y3	Z3	X4	Y4	Z4	X5	Y5	Z5	X6	Y6	Z6	X7	Y7	Z7	X8	Y8	Z8	X9	Y9	Z9	X10	Y10	Z10	X11	Y11	Z11	X12	Y12	Z12	X13	Y13	Z13	X14	Y14	Z14	X15	Y15	Z15	X16	Y16	Z16	X17	Y17	Z17	X18	Y18	Z18	X19	Y19	Z19	X20	Y20	Z20	X21	Y21	Z21	X22	Y22	Z22	X23	Y23	Z23	X24	Y24	Z24	X25	Y25	Z25	X26	Y26	Z26	X27	Y27	Z27	
535	8.916666666666666	0.3733863116336188	0.6954097947940808	0.8581170645165827	0.36527703311201143	0.22175978631935983	0.9167274640120482	0.350534773447994	-0.24738857322756008	0.9275626446476753	0.33730025841221456	-0.18549362723125504	0.598150684206308	0.39341540435191186	-0.232543952260608	0.6867946632495057	0.3410087723169142	-0.31432459001077023	0.9499254386801406	0.17616623376571555	0.6881212605053244	0.863362356399429	0.1731589647816694	0.24068161921133782	0.8757436153817645	0.17876031867342565	-0.20237165828392226	0.8450350199595209	0.20869892027774356	-0.18220937275010207	0.6044272857892937	0.1426653511213602	-0.20063718653389917	0.6721291005784062	0.19618073011299916	-0.3041409379007963	0.9196723771492568	0.2966307198206706	1.2538567601401274	0.9331264984572911	0.30449494231191315	1.5013006297125289	0.9299606313106803	0.320920127195459	1.384842692399162	0.8247460907520303	0.44898495581435227	1.149248015828521	0.9489007719143381	0.46335069032696324	0.894355241162015	0.835107351186525	0.3392664910936982	0.7237206903368483	0.7317870870418999	0.276502456498031	0.6456328529883797	0.6716132587341463	0.2640080425813764	0.6366983540377784	0.6951731468376361	0.27978093255096803	0.6409574437104821	0.6960077103015381	0.13011259041174303	1.1650687413601875	0.9525831573506414	0.11436107166606707	0.8970885326008435	0.8807686516183966	0.2388846663867537	0.7360671420948647	0.7265499442911558	0.30026937361580835	0.6709795514675551	0.6429092096682025	0.3029105029715522	0.6614549392346918	0.638383117583913	0.2868024545758433	0.6499450897075505	0.6713466619672634	
536	8.933333333333334	0.3739932978868247	0.6959118136721617	0.8581136355297291	0.3659344188895392	0.22275664340938967	0.9153399281019886	0.3504725414908332	-0.2480486920423191	0.9286971412736806	0.33710910228275603	-0.18561366705720683	0.5985631130539454	0.39326949044032744	-0.2312379890482831	0.685029671573297	0.34083983868053636	-0.3139928793091112	0.9501049944160358	0.17620018344479188	0.6887032205583256	0.8623646950604414	0.17272481151865418	0.24035543862324873	0.8771992824517612	0.1786388021798481	-0.2026936719063993	0.8449915603668968	0.20860241647996908	-0.181431764894263	0.6044941016065117	0.14286979298800387	-0.2002842690834207	0.6716376004812122	0.19615935573136292	-0.3037500153448514	0.9201923090069034	0.29663778572698224	1.253849967348049	0.9330824765059305	0.30448800870256587	1.5012777120508523	0.9298804258496067	0.3209082623678737	1.385498078057722	0.8248340184082967	0.4489300174400356	1.1491918821072824	0.949078456575869	0.4620740425458533	0.894264554702198	0.8350300345743285	0.3392083063226267	0.7239504151221978	0.731713909940751	0.28103553691837035	0.6493029056086066	0.6621161366411399	0.26860920508676434	0.6401050845208619	0.6856269928433572	0.2813793310503324	0.6417912819251147	0.6938288504571016	0.13007930638908147	1.1650885136150508	0.9523275226465299	0.11358345185283025	0.8964866030834824	0.882942911894864	0.23902122571185133	0.7356625354733206	0.7266765128119844	0.3026926562772208	0.6712788796679365	0.6426858739522755	0.305085317595214	0.6615757569923293	0.6412957586975938	0.2861754386115347	0.6483629042248178	0.6714731008071059	
537	8.95	0.37501335882064557	0.6965137011793541	0.8582194051253809	0.36659145175598323	0.22399048554957368	0.9136917992876543	0.3503915462038983	-0.24881765654578053	0.9299738356183394	0.33718943064263135	-0.1864600172219659	0.5999528675879033	0.3931668021947734	-0.22941088387324482	0.6825743090944424	0.3406998640101916	-0.3138184852599087	0.9502339745096213	0.1764343252462975	0.6897196301636155	0.8614865748507025	0.17237735570051468	0.24006355742302593	0.8783386256149461	0.17856364500808183	-0.20298034819876357	0.8449634903925247	0.20830501960857262	-0.1804544029880159	0.6044640969720135	0.14323769214256846	-0.19968489582083243	0.6707976006256513	0.19612080157954712	-0.30329150572511465	0.9205623809436995	0.29663966014507676	1.2538477815719973	0.9330554894740539	0.3044882801252021	1.5012541125438834	0.9298738047914772	0.32090495232377414	1.386009618052374	0.8249055735245807	0.44882067833465833	1.1491079700086873	0.9494467846105374	0.46086997306718186	0.8942278468999251	0.8349206145430259	0.339028386310556	0.7244509098441116	0.7318366211376244	0.2843057863998458	0.6522366364266168	0.654305936462687	0.27314659510522465	0.6435544045907933	0.6759184055022596	0.2825961659482049	0.6432606273471329	0.6899540010799681	0.13013742326279049	1.1650129767557527	0.9526199228978207	0.1130174874685787	0.8961351298446195	0.8841271398728681	0.2390475102396566	0.7352204520866411	0.7261439535541587	0.3050852910596115	0.6718982488187022	0.6423709293030821	0.3074975489941486	0.6615154133411869	0.6439887604241796	0.28498487179169407	0.6463820887415788	0.6712659849990446	
538	8.966666666666667	0.37628938290449604	0.6972319341518132	0.8582740961143991	0.36721001161227307	0.2253610423243277	0.911896461939955	0.35031131305300156	-0.24965005870042023	0.931281395789654	0.3374516646441277	-0.18816839172544114	0.6022413613358165	0.3931112364446201	-0.22729778486941504	0.6796931837457102	0.34060192058817407	-0.31380927468037284	0.9503082347072145	0.17682710000065102	0.6910742274065145	0.8606717250983722	0.17212943702455874	0.2399174922277364	0.8791090926296712	0.17854012178724105	-0.20322094957094566	0.8449480557232392	0.20778833559155235	-0.17943847762783854	0.6043368841255944	0.14361380814121083	-0.19909295864090645	0.6699629512808719	0.1960454845313552	-0.30271330050470285	0.9206595002988429	0.29663421271509083	1.2538523675308355	0.9330472195475402	0.3045174965767291	1.5012875532937155	0.9300468455176663	0.32090997328163573	1.386301668607721	0.8249460398675099	0.44873266207167284	1.149052278945788	0.9497258424865781	0.45995042467128094	0.894325909799008	0.8344148421278414	0.338730321973583	0.7250888672890208	0.7323638474311693	0.2862928774169921	0.6544322958704787	0.6483605390152607	0.2770044966569836	0.646729140593809	0.6670375892402615	0.28332816997252047	0.6451638548606327	0.6850772070221596	0.13020021066124735	1.164937659582424	0.9529320195416575	0.11249991141802379	0.8960393420470011	0.8841166651937935	0.2388443700683066	0.7349381856360909	0.7246088662907084	0.30759492769596974	0.6730475848033628	0.6413284234178673	0.3098057534718377	0.6615134366907046	0.6457806363622478	0.28327081404226556	0.6442486883493402	0.6705654683327069	
539	8.983333333333333	0.37768875965247334	0.6980624249377876	0.8582167098089883	0.3677161735200099	0.2267301588411867	0.9101609882926152	0.3502428839222462	-0.25047716032057155	0.9324501395555929	0.33782453491027586	-0.19052239624396838	0.6050025468057919	0.3931057139779616	-0.22530796701346437	0.6769161785748046	0.3405516958848915	-0.3139330487960356	0.950324634508677	0.17735946407801892	0.6927011196762195	0.8598812258217414	0.17196030494366255	0.23999518411380397	0.8795521576314371	0.17857009254211664	-0.20339946760276054	0.844947534474989	0.20719963708802758	-0.17845112204316993	0.6041537022556742	0.14388909067683278	-0.19869269999755718	0.6693927654393427	0.1959416217461767	-0.3020288361152306	0.9204778696693692	0.29662009075889056	1.253864027130972	0.9330547006116712	0.3045825119967724	1.5014190600240187	0.930422863477925	0.32091902104264997	1.3863669475973792	0.8249456000033875	0.4488079651053265	1.14912528136376	0.9493934719271122	0.4595519869664015	0.8945874060736301	0.8332056993309762	0.3384763491724193	0.7252883439636751	0.7332194199057971	0.2871099062082544	0.6560299051507672	0.644189317172442	0.2795372464686396	0.6494803612374871	0.6598559419415368	0.2834792682313008	0.6472183885451934	0.6798498764929898	0.1302103878121206	1.1649298529504195	0.9529001056335024	0.11194480538953547	0.8960868123203496	0.8831991656793987	0.23808535166146083	0.7350416117850316	0.7217155126995141	0.31010804380450563	0.6748385143403168	0.6389531167910099	0.31153131438599485	0.6618548690620297	0.6459923285377412	0.2810527550198234	0.6423058340942851	0.6690542454466256	
540	9.0	0.37913965150023077	0.6989818235806478	0.8580665979993701	0.36804181813640147	0.2279931103549636	0.9086704682229095	0.3501848259204	-0.2512733572991036	0.9333861472269673	0.3383228675027621	-0.19314343326794417	0.6077313233380461	0.3931581766482321	-0.22402621183529625	0.6750546377968827	0.34054199903558413	-0.31415846373232886	0.9502868564481071	0.17804138648264625	0.6945503361889616	0.8591244969784118	0.17185825673992777	0.24032310173408833	0.8797014265427106	0.1786420319852416	-0.20349193625001227	0.8449689082141179	0.2067182031002232	-0.17749635711659612	0.6039831789558556	0.14402403261262914	-0.19854763602259293	0.6691764513270467	0.19582494193629824	-0.30130685621843867	0.9200846991991777	0.2965999526296409	1.2538795210418874	0.9330761438036965	0.30463742954123485	1.5016140605308599	0.9307580734991516	0.3209266979540705	1.3862946048832756	0.8249094060211155	0.44914901787444195	1.1493940821884696	0.9480807582410189	0.4598009567108534	0.8949797003623131	0.8312464938709561	0.3386266228683439	0.7241169625301662	0.7337649110051371	0.28685212213159705	0.6572269001086868	0.6416036626960995	0.28032412663258865	0.6516089562738521	0.6549672755449987	0.28308824283458395	0.6489555837625927	0.6745811457793276	0.1301682452212496	1.1649926823646994	0.9525144506219569	0.11150327019306497	0.8961453663207275	0.8821424784669274	0.23617426051814655	0.735774400790808	0.7170740761081361	0.31193331325073526	0.6771878964309693	0.6351706321607377	0.31205694512937276	0.6627220894743887	0.6441795136512922	0.27856052073387594	0.6409564693470857	0.6663509387597975	
